<svg xmlns="http://www.w3.org/2000/svg" viewBox="0 0 794.05 279.13" fill="none" color="#ead9b8">
  <g transform="translate(326.23 0) scale(3.5400)">
    <circle cx="20" cy="20" r="16" stroke="currentColor" stroke-width="1.2"/>
    <path d="M20 8 L30 26 L10 26 Z" stroke="currentColor" stroke-width="1.2"/>
    <circle cx="20" cy="20" r="2" fill="currentColor"/>
  </g>
  <g transform="translate(0.00 180.54)">
    <g transform="translate(1.61 70.80)">
      <path fill="currentColor" d="M-1.611-1.855L-1.611-1.855Q-1.611-2.783-1.001-3.271Q-0.391-3.760 0.439-4.028Q1.270-4.297 2.124-4.468Q2.979-4.639 3.516-4.980L3.516-4.980Q3.662-5.078 3.906-5.298Q4.150-5.518 4.443-5.786Q4.736-6.055 5.029-6.274Q5.322-6.494 5.469-6.592L5.469-6.592L7.813-7.764Q8.252-7.959 8.911-8.887Q9.570-9.814 10.229-10.962Q10.889-12.109 11.475-13.208Q12.061-14.307 12.305-14.844L12.305-14.844Q12.402-14.941 12.451-15.381Q12.500-15.820 12.500-16.064L12.500-16.064Q12.549-16.260 12.695-16.577Q12.842-16.895 12.842-16.992L12.842-16.992Q12.939-17.090 13.184-17.456Q13.428-17.822 13.721-18.213Q14.014-18.604 14.233-18.970Q14.453-19.336 14.502-19.434L14.502-19.434Q14.551-19.482 14.600-19.800Q14.648-20.117 14.697-20.483Q14.746-20.850 14.795-21.191Q14.844-21.533 14.844-21.631L14.844-21.631Q15.137-23.193 15.698-24.780Q16.260-26.367 16.821-27.930Q17.383-29.492 17.822-31.104Q18.262-32.715 18.408-34.375L18.408-34.375L21.777-43.652Q22.461-45.605 22.583-47.778Q22.705-49.951 23.291-52.051L23.291-52.051Q24.121-53.955 25.293-55.786Q26.465-57.617 27.441-59.717L27.441-59.717Q27.783-60.791 27.856-61.987Q27.930-63.184 28.613-64.209L28.613-64.209Q28.857-64.551 29.834-65.527Q30.811-66.504 31.934-67.529Q33.057-68.555 34.131-69.336Q35.205-70.117 35.693-70.117L35.693-70.117Q36.621-70.117 36.963-69.434L36.963-69.434Q37.207-69.238 37.476-68.799Q37.744-68.359 37.744-68.262L37.744-68.262Q37.988-67.383 38.428-66.504Q38.867-65.625 39.160-64.600L39.160-64.600L39.111-63.525Q39.111-62.842 39.429-62.085Q39.746-61.328 39.941-60.840L39.941-60.840Q40.479-59.131 40.894-57.520Q41.309-55.908 41.553-54.297L41.553-54.297Q41.748-53.320 42.188-52.515Q42.627-51.709 42.627-50.684L42.627-50.684L42.578-49.902Q43.457-49.121 43.896-48.486Q44.336-47.852 44.604-47.192Q44.873-46.533 45.142-45.776Q45.410-45.020 45.996-43.945L45.996-43.945Q46.484-42.969 46.729-42.114Q46.973-41.260 47.144-40.381Q47.314-39.502 47.510-38.525Q47.705-37.549 48.145-36.426L48.145-36.426Q48.193-36.182 48.462-35.596Q48.730-35.010 48.730-34.814L48.730-34.814L48.730-32.959Q48.730-32.861 48.926-32.520Q49.121-32.178 49.365-31.763Q49.609-31.348 49.805-30.957Q50-30.566 50-30.420L50-30.420Q50-30.371 50.024-30.151Q50.049-29.932 50.073-29.663Q50.098-29.395 50.146-29.150Q50.195-28.906 50.244-28.906L50.244-28.906L51.611-27.539Q51.953-27.246 52.051-26.855Q52.148-26.465 52.197-26.001Q52.246-25.537 52.295-25.073Q52.344-24.609 52.588-24.170L52.588-24.170Q53.174-22.803 53.613-21.362Q54.053-19.922 54.785-18.506L54.785-18.506Q55.225-17.480 55.518-16.333Q55.811-15.186 55.811-14.111L55.811-14.111L55.811-13.525Q56.445-12.402 57.227-11.523Q58.008-10.645 58.496-9.814L58.496-9.814Q58.936-8.740 59.424-8.105Q59.912-7.471 60.376-7.080Q60.840-6.689 61.279-6.470Q61.719-6.250 62.158-6.006L62.158-6.006Q63.232-5.371 64.380-5.078Q65.527-4.785 67.285-4.492L67.285-4.492L68.652-4.150Q69.287-3.760 69.434-3.003Q69.580-2.246 69.580-1.709L69.580-1.709Q69.580-0.684 68.774-0.220Q67.969 0.244 67.139 0.244L67.139 0.244L62.988 0L61.963 0Q61.719-0.195 61.304-0.317Q60.889-0.439 60.449-0.488Q60.010-0.537 59.644-0.537Q59.277-0.537 59.180-0.586L59.180-0.586L53.369-0.586Q52.979-1.123 52.661-1.196Q52.344-1.270 51.758-1.270L51.758-1.270Q49.756-1.270 47.583-0.757Q45.410-0.244 42.969-0.244L42.969-0.244L41.895-0.244Q41.113-0.244 40.405-0.293Q39.697-0.342 39.160-0.684L39.160-0.684Q38.916-0.830 38.916-1.514L38.916-1.514L39.014-2.295Q39.111-2.539 39.111-2.734Q39.111-2.930 39.111-3.027L39.111-3.027Q39.111-3.369 39.404-3.467L39.404-3.467Q40.283-3.857 41.406-4.053Q42.529-4.248 43.555-4.492Q44.580-4.736 45.288-5.176Q45.996-5.615 45.996-6.494L45.996-6.494L45.996-6.592Q45.947-7.715 45.825-9.155Q45.703-10.596 45.703-12.012L45.703-12.012Q45.703-12.500 45.386-13.037Q45.068-13.574 45.020-14.014L45.020-14.014L45.020-16.992Q44.922-17.627 44.409-19.019Q43.896-20.410 43.140-21.777Q42.383-23.145 41.504-24.194Q40.625-25.244 39.746-25.244L39.746-25.244Q38.477-25.244 37.134-24.707Q35.791-24.170 34.424-24.170L34.424-24.170Q33.252-24.170 32.202-24.634Q31.152-25.098 29.736-25.098L29.736-25.098L26.611-25.098Q25.586-25.098 24.536-24.976Q23.486-24.854 22.607-24.316L22.607-24.316Q21.094-23.438 19.824-21.948Q18.555-20.459 17.969-18.262L17.969-18.262L17.627-14.844Q17.627-14.746 17.529-14.355Q17.432-13.965 17.334-13.525Q17.236-13.086 17.139-12.720Q17.041-12.354 17.041-12.256L17.041-12.256Q17.041-12.158 16.992-11.963Q16.943-11.768 16.943-11.572L16.943-11.572Q16.943-10.693 17.236-10.303Q17.529-9.912 17.969-9.131L17.969-9.131Q18.213-8.691 18.628-7.959Q19.043-7.227 19.482-6.689L19.482-6.689Q20.166-6.104 21.313-5.762Q22.461-5.420 23.584-5.029Q24.707-4.639 25.513-4.053Q26.318-3.467 26.318-2.441L26.318-2.441L26.318-2.100Q26.074-0.195 24.902 0.415Q23.730 1.025 21.875 1.025L21.875 1.025L17.627-0.098L15.869-0.098Q14.990-0.098 14.063-0.049Q13.135 0 12.280 0.098Q11.426 0.195 10.767 0.366Q10.107 0.537 9.766 0.781L9.766 0.781Q8.545 0.781 7.349 0.830Q6.152 0.879 5.200 0.928Q4.248 0.977 3.638 1.001Q3.027 1.025 2.930 1.025L2.930 1.025Q2.295 1.025 1.514 0.830Q0.732 0.635 0.024 0.244Q-0.684-0.146-1.147-0.659Q-1.611-1.172-1.611-1.855ZM23.535-34.961L23.535-34.961Q23.486-34.424 23.438-33.911Q23.389-33.398 23.389-32.959L23.389-32.959Q23.389-31.592 24.023-31.128Q24.658-30.664 25.977-30.664L25.977-30.664Q26.123-30.664 26.221-30.762L26.221-30.762Q26.270-30.811 26.318-30.908L26.318-30.908Q26.416-30.908 26.978-31.006Q27.539-31.104 27.783-31.152L27.783-31.152Q28.223-31.104 28.638-31.006Q29.053-30.908 29.297-30.908L29.297-30.908L36.963-30.908Q40.283-30.908 40.283-33.936L40.283-33.936Q40.283-34.375 39.966-35.059Q39.648-35.742 39.209-36.548Q38.770-37.354 38.354-38.232Q37.939-39.111 37.744-39.941L37.744-39.941Q37.744-40.283 37.500-40.527L37.500-40.527L35.205-43.945Q35.205-44.189 35.034-44.434Q34.863-44.678 34.766-44.922L34.766-44.922L34.521-45.947Q34.277-46.973 33.936-48.438Q33.594-49.902 33.105-51.221Q32.617-52.539 32.007-53.467Q31.396-54.395 30.664-54.395L30.664-54.395Q30.225-54.395 29.541-53.125Q28.857-51.855 28.052-49.902Q27.246-47.949 26.440-45.581Q25.635-43.213 25-41.064Q24.365-38.916 23.950-37.231Q23.535-35.547 23.535-34.961Z M103.287-2.441L103.287-2.441Q103.287-3.223 103.653-4.102Q104.020-4.980 104.801-4.980L104.801-4.980L108.854-5.322Q110.074-5.566 111.246-5.762Q112.418-5.957 113.517-6.274Q114.615-6.592 115.592-7.129Q116.568-7.666 117.398-8.691L117.398-8.691Q117.594-9.033 117.716-9.351Q117.838-9.668 117.838-10.059L117.838-10.059Q117.838-10.840 118.229-11.475L118.229-11.475Q118.229-12.695 118.204-13.696Q118.180-14.697 117.984-15.967L117.984-15.967Q117.887-16.553 117.887-16.943Q117.887-17.334 117.887-17.578L117.887-17.578Q117.887-18.359 117.936-18.677Q117.984-18.994 118.229-19.775L118.229-19.775Q118.229-21.191 118.180-22.144Q118.131-23.096 118.131-23.975L118.131-23.975Q118.131-25.635 118.668-27.393L118.668-27.393L118.229-34.619Q118.131-34.814 118.058-35.400Q117.984-35.986 117.984-36.230L117.984-36.230Q118.229-36.816 118.448-37.500Q118.668-38.184 118.668-39.014L118.668-39.014Q118.521-40.430 118.497-41.748Q118.473-43.066 118.229-44.531L118.229-44.531Q118.131-44.922 117.887-45.166Q117.643-45.410 117.643-45.850L117.643-45.850Q117.643-46.387 117.887-46.606Q118.131-46.826 118.229-47.070L118.229-47.070L118.229-49.414Q118.229-50.439 118.204-51.733Q118.180-53.027 118.058-54.395Q117.936-55.762 117.643-57.153Q117.350-58.545 116.813-59.814L116.813-59.814Q116.568-60.010 116.129-60.327Q115.689-60.645 115.274-60.986Q114.859-61.328 114.542-61.572Q114.225-61.816 114.176-61.816L114.176-61.816Q113.736-62.158 112.931-62.427Q112.125-62.695 111.148-62.964Q110.172-63.232 109.171-63.525Q108.170-63.818 107.340-64.233Q106.510-64.648 105.997-65.210Q105.484-65.771 105.484-66.553L105.484-66.553Q105.484-66.846 105.826-67.041Q106.168-67.236 106.656-67.358Q107.145-67.480 107.584-67.529Q108.023-67.578 108.268-67.578L108.268-67.578Q108.854-67.480 109.146-67.480Q109.439-67.480 109.635-67.480L109.635-67.480Q110.025-67.480 110.123-67.578L110.123-67.578Q111.783-67.676 113.541-67.749Q115.299-67.822 117.057-67.822L117.057-67.822Q118.717-67.822 120.255-67.749Q121.793-67.676 123.648-67.578L123.648-67.578Q123.844-67.334 124.112-67.236Q124.381-67.139 124.576-67.139L124.576-67.139Q126.773-67.334 128.360-67.578Q129.947-67.822 131.266-68.091Q132.584-68.359 133.805-68.652Q135.025-68.945 136.490-69.189L136.490-69.189L137.662-69.189Q138.590-69.189 139.933-69.141Q141.275-69.092 142.472-68.848Q143.668-68.604 144.522-68.140Q145.377-67.676 145.377-66.797L145.377-66.797Q145.377-66.357 145.328-65.747Q145.279-65.137 145.035-64.697L145.035-64.697Q144.791-64.307 143.595-64.063Q142.398-63.818 140.982-63.672Q139.566-63.525 138.199-63.477Q136.832-63.428 136.246-63.428L136.246-63.428Q136.002-63.330 135.758-63.281L135.758-63.281Q135.514-63.232 135.294-63.208Q135.074-63.184 134.879-63.184L134.879-63.184L134.049-62.939Q132.291-62.744 131.363-62.598Q130.436-62.451 129.947-62.158Q129.459-61.865 129.337-61.401Q129.215-60.938 129.068-60.059L129.068-60.059Q128.971-59.229 128.946-58.374Q128.922-57.520 128.727-56.445L128.727-56.445L128.043-54.883Q128.043-54.248 128.287-53.516Q128.531-52.783 128.849-52.026Q129.166-51.270 129.410-50.488Q129.654-49.707 129.654-48.975L129.654-48.975L129.313-45.215L129.996-42.090Q129.996-40.967 129.776-40.112Q129.557-39.258 129.313-38.281L129.313-38.281Q129.068-36.865 129.020-35.156Q128.971-33.447 128.971-32.080L128.971-32.080L128.873-30.566Q128.873-29.346 129.313-28.955L129.313-28.955L129.313-19.092Q129.068-18.652 129.020-18.433Q128.971-18.213 128.971-17.969L128.971-17.969Q128.971-17.236 129.313-16.626Q129.654-16.016 129.654-15.479L129.654-15.479Q129.654-14.453 129.435-13.257Q129.215-12.061 128.971-11.230L128.971-11.230Q128.971-11.133 128.922-10.938Q128.873-10.742 128.824-10.498L128.824-10.498Q128.775-10.254 128.727-9.961L128.727-9.961Q128.873-9.180 129.654-8.398Q130.436-7.617 131.461-6.982Q132.486-6.348 133.561-5.957Q134.635-5.566 135.367-5.566L135.367-5.566L137.516-6.006Q137.711-6.006 138.028-5.786Q138.346-5.566 139.127-5.566L139.127-5.566Q139.762-5.566 140.274-5.908Q140.787-6.250 141.568-6.250L141.568-6.250L143.082-5.566L146.207-5.322L147.574-4.980L148.404-4.980Q149.771-5.176 151.114-5.347Q152.457-5.518 153.751-5.786Q155.045-6.055 156.266-6.519Q157.486-6.982 158.512-7.861L158.512-7.861L158.658-8.008Q158.854-8.203 158.854-8.447L158.854-8.447Q159.098-9.229 159.488-9.741Q159.879-10.254 160.343-10.669Q160.807-11.084 161.319-11.450Q161.832-11.816 162.320-12.354L162.320-12.354Q163.004-12.891 163.541-13.892Q164.078-14.893 164.762-15.723L164.762-15.723Q165.250-16.211 165.934-16.772Q166.617-17.334 167.350-17.798Q168.082-18.262 168.790-18.555Q169.498-18.848 170.084-18.848L170.084-18.848Q170.328-18.848 170.719-18.799Q171.109-18.750 171.476-18.652Q171.842-18.555 172.110-18.384Q172.379-18.213 172.379-17.969L172.379-17.969Q172.379-16.895 172.184-16.187Q171.988-15.479 171.622-14.893Q171.256-14.307 170.792-13.770Q170.328-13.232 169.840-12.598L169.840-12.598Q169.645-12.354 169.547-11.914Q169.449-11.475 169.449-11.133L169.449-11.133Q169.449-10.840 169.522-10.376Q169.596-9.912 169.596-9.717L169.596-9.717Q169.449-9.082 169.132-8.545Q168.814-8.008 168.399-7.568Q167.984-7.129 167.594-6.738Q167.203-6.348 166.959-6.006L166.959-6.006L166.715-4.492Q166.178-2.002 164.542-0.781Q162.906 0.439 160.465 0.439L160.465 0.439L156.607-0.342L155.045 0.439L149.723 0.439Q148.746-0.146 147.989-0.244Q147.232-0.342 146.207-0.342L146.207-0.342Q145.084-0.342 144.107 0.049Q143.131 0.439 142.252 0.439L142.252 0.439L141.568 0.439L134.049-0.586L133.121-0.928L128.727-0.928Q128.189-1.465 127.823-1.538Q127.457-1.611 126.773-1.611L126.773-1.611Q126.236-1.611 125.968-1.563Q125.699-1.514 125.260-1.172L125.260-1.172L117.398-1.172Q116.666-0.586 115.104-0.220Q113.541 0.146 111.808 0.342Q110.074 0.537 108.463 0.610Q106.852 0.684 105.973 0.684L105.973 0.684Q105.338 0.684 104.850 0.391Q104.361 0.098 104.020-0.366Q103.678-0.830 103.482-1.367Q103.287-1.904 103.287-2.441Z M210.285-35.840L210.285-36.768Q210.285-38.135 210.896-39.355Q211.506-40.576 211.701-41.895L211.701-41.895Q211.701-41.992 211.750-42.480Q211.799-42.969 211.872-43.530Q211.945-44.092 212.019-44.580Q212.092-45.068 212.141-45.215L212.141-45.215Q212.238-45.361 212.531-45.923Q212.824-46.484 213.142-47.095Q213.459-47.705 213.776-48.242Q214.094-48.779 214.191-48.926L214.191-48.926Q214.191-48.975 214.240-49.194Q214.289-49.414 214.362-49.634Q214.436-49.854 214.484-50.073Q214.533-50.293 214.533-50.342L214.533-50.342Q216.047-53.662 218.537-56.323Q221.027-58.984 223.908-61.182L223.908-61.182Q224.006-61.230 224.372-61.426Q224.738-61.621 225.129-61.841Q225.520-62.061 225.861-62.280Q226.203-62.500 226.252-62.598L226.252-62.598Q226.594-62.695 227.131-63.062Q227.668-63.428 227.766-63.525L227.766-63.525Q227.814-63.574 228.010-63.794Q228.205-64.014 228.425-64.258Q228.645-64.502 228.889-64.722Q229.133-64.941 229.230-64.941L229.230-64.941Q229.279-64.990 229.597-65.063Q229.914-65.137 230.329-65.210Q230.744-65.283 231.086-65.332Q231.428-65.381 231.574-65.381L231.574-65.381Q231.623-65.430 231.867-65.576Q232.111-65.723 232.429-65.894Q232.746-66.064 233.039-66.187Q233.332-66.309 233.430-66.309L233.430-66.309L233.527-66.309L233.869-66.309Q234.406-66.455 234.943-66.797Q235.480-67.139 236.042-67.456Q236.604-67.773 237.165-68.018Q237.727-68.262 238.313-68.262L238.313-68.262L238.605-68.262Q238.654-68.164 239.021-67.944Q239.387-67.725 239.533-67.725L239.533-67.725Q239.729-67.822 240.241-68.140Q240.754-68.457 240.949-68.652L240.949-68.652Q242.512-68.896 244.074-69.043Q245.637-69.189 247.199-69.189L247.199-69.189Q248.762-69.189 250.373-69.043Q251.984-68.896 253.645-68.652L253.645-68.652Q253.693-68.652 254.206-68.555Q254.719-68.457 255.402-68.311Q256.086-68.164 256.770-68.018Q257.453-67.871 257.844-67.725L257.844-67.725Q257.941-67.725 258.308-67.529Q258.674-67.334 258.771-67.334L258.771-67.334Q258.820-67.236 259.089-66.943Q259.357-66.650 259.675-66.309Q259.992-65.967 260.285-65.698Q260.578-65.430 260.725-65.381L260.725-65.381Q260.920-65.283 261.384-65.210Q261.848-65.137 262.409-65.063Q262.971-64.990 263.532-64.966Q264.094-64.941 264.533-64.941L264.533-64.941L264.924-64.941Q264.973-64.795 265.144-64.575Q265.314-64.355 265.534-64.136Q265.754-63.916 265.974-63.745Q266.193-63.574 266.291-63.525L266.291-63.525Q266.340-63.477 266.560-63.403Q266.779-63.330 267.023-63.257Q267.268-63.184 267.487-63.110Q267.707-63.037 267.707-63.037L267.707-63.037Q267.805-63.037 268.195-62.598Q268.586-62.158 268.635-62.109L268.635-62.109Q269.123-61.768 269.660-61.548Q270.197-61.328 270.759-61.133Q271.320-60.938 271.857-60.742Q272.395-60.547 272.883-60.205L272.883-60.205Q272.980-60.205 273.322-59.814Q273.664-59.424 273.908-59.277L273.908-59.277Q275.959-56.934 277.668-54.712Q279.377-52.490 280.891-49.902L280.891-49.902Q281.379-49.072 281.940-47.681Q282.502-46.289 282.990-44.800Q283.479-43.311 283.796-41.895Q284.113-40.479 284.211-39.551L284.211-39.551L284.211-35.840Q284.211-35.596 284.406-35.034Q284.602-34.473 284.699-34.375L284.699-34.375L284.699-34.131Q284.699-32.910 284.504-31.885Q284.309-30.859 284.016-29.907Q283.723-28.955 283.381-27.979Q283.039-27.002 282.746-25.928L282.746-25.928Q282.551-25.049 282.502-24.414Q282.453-23.779 282.380-23.193Q282.307-22.607 282.111-21.997Q281.916-21.387 281.428-20.605L281.428-20.605Q281.379-20.557 281.159-20.361Q280.939-20.166 280.695-19.946Q280.451-19.727 280.231-19.507Q280.012-19.287 279.963-19.238L279.963-19.238Q279.914-19.189 279.694-18.848Q279.475-18.506 279.255-18.091Q279.035-17.676 278.815-17.334Q278.596-16.992 278.547-16.895L278.547-16.895Q277.863-15.820 277.033-14.893Q276.203-13.965 275.275-13.110Q274.348-12.256 273.396-11.450Q272.443-10.645 271.516-9.814L271.516-9.814Q271.174-9.570 270.417-8.936Q269.660-8.301 268.830-7.617Q268-6.934 267.268-6.348Q266.535-5.762 266.291-5.566L266.291-5.566Q265.900-5.273 265.046-4.980Q264.191-4.688 263.313-4.346Q262.434-4.004 261.774-3.638Q261.115-3.271 261.115-2.783L261.115-2.783Q261.115-2.246 261.311-2.026Q261.506-1.807 262.092-1.367L262.092-1.367Q262.287-1.270 262.580-1.025Q262.873-0.781 263.166-0.562Q263.459-0.342 263.703-0.146Q263.947 0.049 263.996 0.098L263.996 0.098Q264.045 0.098 264.387 0.146Q264.729 0.195 265.119 0.269Q265.510 0.342 265.852 0.415Q266.193 0.488 266.291 0.488L266.291 0.488Q266.438 0.586 266.999 0.854Q267.561 1.123 268.195 1.465Q268.830 1.807 269.392 2.075Q269.953 2.344 270.100 2.344L270.100 2.344Q271.516 3.027 272.907 3.223Q274.299 3.418 275.764 3.809L275.764 3.809Q275.861 3.809 276.228 4.028Q276.594 4.248 276.691 4.297L276.691 4.297Q277.033 4.443 277.692 4.663Q278.352 4.883 279.011 5.103Q279.670 5.322 280.207 5.493Q280.744 5.664 280.891 5.664L280.891 5.664Q281.086 5.713 281.843 5.859Q282.600 6.006 283.479 6.152Q284.357 6.299 285.114 6.421Q285.871 6.543 286.066 6.592L286.066 6.592Q286.262 6.641 287.165 6.958Q288.068 7.275 289.191 7.642Q290.314 8.008 291.438 8.374Q292.561 8.740 293.146 8.936L293.146 8.936Q294.025 9.277 294.880 9.521Q295.734 9.766 296.564 10.083Q297.395 10.400 298.200 10.791Q299.006 11.182 299.738 11.816L299.738 11.816Q300.227 11.914 301.521 12.158Q302.814 12.402 304.255 12.695Q305.695 12.988 306.940 13.257Q308.186 13.525 308.625 13.672L308.625 13.672Q308.820 13.672 309.382 13.892Q309.943 14.111 310.041 14.209L310.041 14.209Q311.701 14.844 313.410 15.161Q315.119 15.479 316.877 15.674Q318.635 15.869 320.368 16.016Q322.102 16.162 323.811 16.455L323.811 16.455Q323.908 16.553 324.445 16.772Q324.982 16.992 325.080 16.992L325.080 16.992L325.861 16.992L326.594 16.992Q326.691 16.992 327.253 16.772Q327.814 16.553 328.059 16.455L328.059 16.455L332.697 16.455L333.186 16.064L340.217 16.064Q340.314 16.064 340.656 15.869Q340.998 15.674 341.242 15.527L341.242 15.527Q342.072 15.039 342.902 14.722Q343.732 14.404 344.587 14.160Q345.441 13.916 346.345 13.696Q347.248 13.477 348.225 13.184L348.225 13.184Q349.152 12.988 349.958 12.427Q350.764 11.865 351.569 11.304Q352.375 10.742 353.205 10.303Q354.035 9.863 355.061 9.863L355.061 9.863Q355.842 9.863 356.354 10.132Q356.867 10.400 357.160 10.840Q357.453 11.279 357.575 11.865Q357.697 12.451 357.697 13.086L357.697 13.086Q357.697 14.014 357.355 14.819Q357.014 15.625 356.477 16.333Q355.939 17.041 355.256 17.676Q354.572 18.311 353.889 18.848L353.889 18.848Q351.838 20.508 349.763 21.533Q347.688 22.559 345.441 23.584L345.441 23.584Q344.807 23.877 344.123 23.999Q343.439 24.121 342.780 24.243Q342.121 24.365 341.462 24.536Q340.803 24.707 340.217 25L340.217 25Q340.070 25.098 339.606 25.342Q339.143 25.586 338.605 25.879Q338.068 26.172 337.580 26.440Q337.092 26.709 336.896 26.855L336.896 26.855Q333.234 26.953 329.719 27.368Q326.203 27.783 322.541 27.783L322.541 27.783L318.488 27.783Q317.365 27.295 316.291 27.246Q315.217 27.197 313.850 26.855L313.850 26.855Q313.752 26.855 313.410 26.611Q313.068 26.367 313.020 26.367L313.020 26.367L310.871 26.367L310.041 26.367Q309.797 26.318 308.747 26.074Q307.697 25.830 306.452 25.537Q305.207 25.244 303.986 24.951Q302.766 24.658 302.131 24.512L302.131 24.512Q302.033 24.512 301.618 24.292Q301.203 24.072 301.105 23.975L301.105 23.975L300.666 23.975Q300.275 23.975 299.787 24.023Q299.299 24.072 298.713 24.072L298.713 24.072Q298.176 24.072 297.565 23.975Q296.955 23.877 296.467 23.584L296.467 23.584Q296.369 23.535 296.174 23.315Q295.979 23.096 295.759 22.852Q295.539 22.607 295.319 22.388Q295.100 22.168 295.002 22.119L295.002 22.119L294.660 22.119L293.488 22.119L293.146 22.119Q293.049 22.119 292.585 21.997Q292.121 21.875 291.560 21.704Q290.998 21.533 290.510 21.387Q290.021 21.240 289.875 21.191L289.875 21.191Q289.777 21.191 289.362 21.118Q288.947 21.045 288.459 20.972Q287.971 20.898 287.556 20.825Q287.141 20.752 286.994 20.703L286.994 20.703Q286.896 20.703 286.530 20.288Q286.164 19.873 286.066 19.775L286.066 19.775Q285.920 19.727 285.383 19.604Q284.846 19.482 284.211 19.312Q283.576 19.141 283.039 19.019Q282.502 18.896 282.355 18.848L282.355 18.848Q282.258 18.799 281.843 18.604Q281.428 18.408 280.939 18.164Q280.451 17.920 280.036 17.725Q279.621 17.529 279.475 17.480L279.475 17.480Q279.426 17.432 279.157 17.358Q278.889 17.285 278.571 17.212Q278.254 17.139 277.961 17.065Q277.668 16.992 277.619 16.992L277.619 16.992Q277.375 16.895 276.838 16.724Q276.301 16.553 276.154 16.455L276.154 16.455Q276.057 16.455 275.520 16.162Q274.982 15.869 274.348 15.552Q273.713 15.234 273.151 14.941Q272.590 14.648 272.443 14.600L272.443 14.600L271.857 14.600L270.002 14.600L269.563 14.600Q269.465 14.600 269.123 14.331Q268.781 14.063 268.391 13.721Q268 13.379 267.683 13.110Q267.365 12.842 267.316 12.744L267.316 12.744Q266.535 12.207 265.656 12.183Q264.777 12.158 263.996 11.816L263.996 11.816Q262.580 11.182 261.433 10.327Q260.285 9.473 258.771 8.936L258.771 8.936Q258.674 8.936 258.283 8.862Q257.893 8.789 257.429 8.716Q256.965 8.643 256.550 8.594Q256.135 8.545 255.988 8.545L255.988 8.545Q255.744 8.447 255.183 8.276Q254.621 8.105 254.572 8.008L254.572 8.008Q254.523 8.008 254.401 7.788Q254.279 7.568 254.133 7.324Q253.986 7.080 253.840 6.860Q253.693 6.641 253.645 6.592L253.645 6.592L252.619 6.592L252.180 6.592Q252.082 6.592 251.716 6.372Q251.350 6.152 251.252 6.152L251.252 6.152Q251.057 6.055 250.642 5.908Q250.227 5.762 249.763 5.615Q249.299 5.469 248.933 5.347Q248.566 5.225 248.469 5.225L248.469 5.225L247.541 5.225Q247.443 5.225 247.150 5.005Q246.857 4.785 246.540 4.541Q246.223 4.297 245.979 4.077Q245.734 3.857 245.686 3.809L245.686 3.809Q245.490 3.711 244.904 3.540Q244.318 3.369 244.221 3.369L244.221 3.369Q244.074 3.320 243.684 3.101Q243.293 2.881 242.854 2.661Q242.414 2.441 241.999 2.222Q241.584 2.002 241.389 1.953L241.389 1.953Q241.291 1.904 241.096 1.758Q240.900 1.611 240.681 1.440Q240.461 1.270 240.266 1.147Q240.070 1.025 240.021 1.025L240.021 1.025Q239.924 0.977 239.655 0.903Q239.387 0.830 239.069 0.757Q238.752 0.684 238.483 0.610Q238.215 0.537 238.068 0.488L238.068 0.488Q237.922 0.488 237.434 0.439Q236.945 0.391 236.384 0.317Q235.822 0.244 235.358 0.171Q234.895 0.098 234.797 0.098L234.797 0.098Q234.357-0.098 233.381-0.562Q232.404-1.025 231.354-1.563Q230.305-2.100 229.426-2.563Q228.547-3.027 228.303-3.223L228.303-3.223Q228.107-3.369 227.521-3.931Q226.936-4.492 226.325-5.151Q225.715-5.811 225.178-6.372Q224.641-6.934 224.494-7.031L224.494-7.031Q224.396-7.031 224.201-7.178Q224.006-7.324 223.762-7.471Q223.518-7.617 223.298-7.764Q223.078-7.910 222.980-7.959L222.980-7.959Q222.541-8.301 221.711-8.984Q220.881-9.668 220.026-10.352Q219.172-11.035 218.537-11.572Q217.902-12.109 217.805-12.158L217.805-12.158Q217.756-12.207 217.585-12.500Q217.414-12.793 217.194-13.159Q216.975-13.525 216.755-13.916Q216.535-14.307 216.389-14.551L216.389-14.551Q216.242-14.893 215.900-15.601Q215.559-16.309 215.192-17.065Q214.826-17.822 214.533-18.433Q214.240-19.043 214.191-19.238L214.191-19.238Q213.947-19.727 213.557-20.679Q213.166-21.631 212.775-22.607Q212.385-23.584 212.067-24.365Q211.750-25.146 211.701-25.342L211.701-25.342L211.701-26.270L211.701-28.613Q211.701-28.760 211.457-29.126Q211.213-29.492 211.213-29.541L211.213-29.541Q211.164-29.883 211.042-30.737Q210.920-31.592 210.773-32.593Q210.627-33.594 210.480-34.497Q210.334-35.400 210.285-35.840L210.285-35.840ZM220.588-35.303L220.588-35.059L220.588-34.717Q220.734-34.619 220.905-34.082Q221.076-33.545 221.076-33.447L221.076-33.447Q221.760-30.811 222.175-28.149Q222.590-25.488 223.566-22.998L223.566-22.998Q224.982-19.336 226.789-16.113Q228.596-12.891 231.086-9.814L231.086-9.814Q231.135-9.717 231.306-9.546Q231.477-9.375 231.574-9.375L231.574-9.375Q231.672-9.277 232.233-9.106Q232.795-8.936 232.941-8.887L232.941-8.887Q233.088-8.789 233.625-8.301Q234.162-7.813 234.797-7.251Q235.432-6.689 236.018-6.201Q236.604-5.713 236.750-5.566L236.750-5.566Q236.799-5.518 237.116-5.469Q237.434-5.420 237.849-5.347Q238.264-5.273 238.605-5.225Q238.947-5.176 239.094-5.176L239.094-5.176Q239.143-5.127 239.533-4.907Q239.924-4.688 240.412-4.443Q240.900-4.199 241.315-3.979Q241.730-3.760 241.877-3.711L241.877-3.711Q242.023-3.662 242.658-3.589Q243.293-3.516 244.001-3.442Q244.709-3.369 245.344-3.296Q245.979-3.223 246.125-3.223L246.125-3.223Q246.174-3.223 246.442-3.149Q246.711-3.076 247.004-3.003Q247.297-2.930 247.590-2.856Q247.883-2.783 247.980-2.783L247.980-2.783Q247.980-2.783 248.176-2.759Q248.371-2.734 248.615-2.734Q248.859-2.734 249.104-2.710Q249.348-2.686 249.494-2.686L249.494-2.686Q249.787-2.686 250.275-2.734Q250.764-2.783 250.813-2.783L250.813-2.783Q250.861-2.783 251.057-2.905Q251.252-3.027 251.472-3.198Q251.691-3.369 251.911-3.516Q252.131-3.662 252.180-3.711L252.180-3.711Q252.863-3.955 253.840-4.028Q254.816-4.102 255.500-4.639L255.500-4.639Q255.598-4.736 255.915-5.103Q256.232-5.469 256.623-5.859Q257.014-6.250 257.355-6.592Q257.697-6.934 257.844-7.031L257.844-7.031Q257.941-7.031 258.356-7.104Q258.771-7.178 259.260-7.251Q259.748-7.324 260.163-7.397Q260.578-7.471 260.725-7.520L260.725-7.520Q260.773-7.568 261.042-7.837Q261.311-8.105 261.628-8.447Q261.945-8.789 262.214-9.058Q262.482-9.326 262.580-9.375L262.580-9.375Q262.775-9.521 263.142-9.839Q263.508-10.156 263.874-10.449Q264.240-10.742 264.558-10.962Q264.875-11.182 264.924-11.230L264.924-11.230Q264.973-11.279 265.241-11.377Q265.510-11.475 265.827-11.548Q266.145-11.621 266.438-11.670Q266.730-11.719 266.779-11.719L266.779-11.719Q266.926-11.768 267.146-11.987Q267.365-12.207 267.585-12.427Q267.805-12.646 267.976-12.842Q268.146-13.037 268.244-13.086L268.244-13.086Q268.293-13.184 268.342-13.477Q268.391-13.770 268.464-14.087Q268.537-14.404 268.586-14.673Q268.635-14.941 268.635-15.039L268.635-15.039Q268.732-15.283 268.903-15.796Q269.074-16.309 269.172-16.406L269.172-16.406Q269.221-16.504 269.367-16.724Q269.514-16.943 269.685-17.163Q269.855-17.383 269.978-17.578Q270.100-17.773 270.100-17.822L270.100-17.822Q270.148-17.969 270.222-18.555Q270.295-19.141 270.368-19.775Q270.441-20.410 270.515-20.996Q270.588-21.582 270.588-21.729L270.588-21.729Q270.588-21.777 270.734-22.095Q270.881-22.412 271.052-22.803Q271.223-23.193 271.369-23.511Q271.516-23.828 271.516-23.926L271.516-23.926Q271.564-24.072 271.638-24.414Q271.711-24.756 271.784-25.146Q271.857-25.537 271.906-25.854Q271.955-26.172 271.955-26.270L271.955-26.270L271.955-27.979L271.955-32.031Q272.053-33.350 272.517-34.814Q272.980-36.279 272.980-37.695L272.980-37.695Q272.932-37.695 272.932-37.744L272.932-37.744L272.932-37.842Q272.883-37.891 272.883-37.988L272.883-37.988Q272.883-38.232 272.468-38.818Q272.053-39.404 271.955-39.551L271.955-39.551Q271.906-39.697 271.784-40.234Q271.662-40.771 271.491-41.406Q271.320-42.041 271.198-42.603Q271.076-43.164 271.027-43.311L271.027-43.311Q270.979-43.359 270.856-43.628Q270.734-43.896 270.563-44.214Q270.393-44.531 270.271-44.824Q270.148-45.117 270.100-45.215L270.100-45.215Q270.051-45.313 270.002-45.776Q269.953-46.240 269.880-46.802Q269.807-47.363 269.709-47.852Q269.611-48.340 269.563-48.486L269.563-48.486Q269.563-48.584 269.221-48.975Q268.879-49.365 268.464-49.829Q268.049-50.293 267.707-50.708Q267.365-51.123 267.316-51.270L267.316-51.270Q266.779-52.100 266.462-53.125Q266.145-54.150 265.852-55.200Q265.559-56.250 265.168-57.178Q264.777-58.105 263.996-58.789L263.996-58.789Q263.947-58.838 263.654-58.936Q263.361-59.033 263.044-59.106Q262.727-59.180 262.434-59.229Q262.141-59.277 262.092-59.277L262.092-59.277Q262.043-59.326 261.848-59.521Q261.652-59.717 261.408-59.961Q261.164-60.205 260.969-60.425Q260.773-60.645 260.725-60.742L260.725-60.742Q260.627-60.791 260.358-60.913Q260.090-61.035 259.748-61.206Q259.406-61.377 259.113-61.499Q258.820-61.621 258.771-61.670L258.771-61.670Q258.674-61.719 258.405-61.938Q258.137-62.158 257.819-62.402Q257.502-62.646 257.233-62.842Q256.965-63.037 256.916-63.037L256.916-63.037Q255.256-63.574 253.376-63.721Q251.496-63.867 249.885-64.453L249.885-64.453Q248.908-64.795 248.322-64.868Q247.736-64.941 247.053-64.941L247.053-64.941L246.125-64.941L244.221-64.941Q244.025-64.941 243.488-64.697Q242.951-64.453 242.805-64.453L242.805-64.453L241.047-64.453L240.461-64.453Q240.266-64.404 239.558-64.063Q238.850-63.721 238.068-63.306Q237.287-62.891 236.604-62.524Q235.920-62.158 235.773-62.109L235.773-62.109Q234.211-61.377 232.868-60.547Q231.525-59.717 230.354-58.740Q229.182-57.764 228.083-56.641Q226.984-55.518 225.910-54.150L225.910-54.150Q225.275-53.369 225.227-52.490Q225.178-51.611 224.982-50.830L224.982-50.830Q224.934-50.732 224.714-50.293Q224.494-49.854 224.250-49.390Q224.006-48.926 223.786-48.511Q223.566-48.096 223.566-47.998L223.566-47.998Q223.469-47.803 223.322-47.046Q223.176-46.289 223.029-45.410Q222.883-44.531 222.761-43.774Q222.639-43.018 222.639-42.822L222.639-42.822Q222.102-40.820 221.638-38.989Q221.174-37.158 220.588-35.303L220.588-35.303Z M341.648-11.084L341.648-11.084Q340.672-13.623 339.744-16.235Q338.816-18.848 337.840-21.191L337.840-21.191Q337.840-21.289 337.767-21.436Q337.693-21.582 337.596-21.729L337.596-21.729Q337.449-21.924 337.352-22.119L337.352-22.119L337.352-26.855L336.912-27.783L336.912-31.348Q336.766-31.689 336.497-31.982Q336.229-32.275 335.936-32.568Q335.643-32.861 335.423-33.228Q335.203-33.594 335.203-34.131L335.203-34.131Q335.154-34.668 335.154-35.181Q335.154-35.693 335.154-36.084L335.154-36.084Q335.154-36.621 335.154-36.987Q335.154-37.354 335.203-37.744L335.203-37.744L335.203-44.531L334.959-48.242L335.203-49.170L334.959-51.367L334.959-52.295L335.203-55.664Q335.105-55.908 335.057-56.104L335.057-56.104Q334.959-56.592 334.959-56.787L334.959-56.787Q334.861-56.982 334.642-57.495Q334.422-58.008 334.104-58.643Q333.787-59.277 333.396-59.888Q333.006-60.498 332.615-60.840L332.615-60.840Q332.225-61.133 331.565-61.426Q330.906-61.719 330.101-62.109Q329.295-62.500 328.440-63.037Q327.586-63.574 326.854-64.307L326.854-64.307Q326.414-64.795 325.926-65.112Q325.438-65.430 325.022-65.674Q324.607-65.918 324.339-66.162Q324.070-66.406 324.070-66.797L324.070-66.797Q324.070-67.480 324.510-67.969Q324.949-68.457 325.608-68.750Q326.268-69.043 327.049-69.165Q327.830-69.287 328.465-69.287L328.465-69.287L330.076-69.775L332.615-69.531L333.543-69.531Q335.105-69.531 336.546-69.312Q337.986-69.092 338.914-68.848L338.914-68.848L341.648-68.945Q342.186-68.945 342.845-68.994Q343.504-69.043 344.188-69.189L344.188-69.189Q344.871-69.287 345.457-69.458Q346.043-69.629 346.629-69.629L346.629-69.629Q347.654-69.629 348.411-69.409Q349.168-69.189 349.754-69.189L349.754-69.189Q350.975-69.189 352.073-69.482Q353.172-69.775 354.588-69.775L354.588-69.775L356.785-69.629Q357.078-69.482 357.566-69.238Q358.055-68.994 358.519-68.750Q358.982-68.506 359.300-68.237Q359.617-67.969 359.617-67.676L359.617-67.676L359.617-65.527Q359.617-65.088 358.665-64.600Q357.713-64.111 356.517-63.696Q355.320-63.281 354.173-62.939Q353.025-62.598 352.635-62.402L352.635-62.402Q351.512-61.719 350.071-60.742Q348.631-59.766 347.654-58.545L347.654-58.545L347.654-53.662L347.215-49.756Q347.215-49.561 347.288-49.243Q347.361-48.926 347.361-48.389L347.361-48.389Q347.361-47.510 346.873-46.875L346.873-46.875L346.873-40.625L347.215-39.355Q347.215-39.258 347.337-38.525Q347.459-37.793 347.605-36.816Q347.752-35.840 347.874-34.814Q347.996-33.789 347.996-33.105L347.996-33.105Q347.850-32.861 347.752-32.544Q347.654-32.227 347.654-31.592L347.654-31.592Q347.654-31.396 347.752-31.226Q347.850-31.055 348.387-30.908L348.387-30.908L348.387-28.027Q348.387-27.393 348.387-26.904Q348.387-26.416 348.484-25.830L348.484-25.830L349.266-23.486L352.049-17.822Q352.635-16.846 353.196-15.845Q353.758-14.844 354.368-13.916Q354.979-12.988 355.687-12.158Q356.395-11.328 357.371-10.742L357.371-10.742L359.617-10.205L360.838-8.936Q362.254-7.959 363.987-7.813Q365.721-7.666 367.479-7.666L367.479-7.666Q368.406-7.666 369.090-7.666Q369.773-7.666 370.433-7.739Q371.092-7.813 371.849-7.959Q372.605-8.105 373.680-8.350L373.680-8.350Q374.021-8.350 374.290-8.496Q374.559-8.643 374.803-8.838Q375.047-9.033 375.315-9.229Q375.584-9.424 376.023-9.521L376.023-9.521Q377.293-9.766 378.025-10.083Q378.758-10.400 379.319-10.840Q379.881-11.279 380.516-11.890Q381.150-12.500 382.176-13.330L382.176-13.330L383.445-13.916Q383.494-13.916 383.763-14.551Q384.031-15.186 384.397-16.162Q384.764-17.139 385.179-18.335Q385.594-19.531 385.984-20.630Q386.375-21.729 386.692-22.559Q387.010-23.389 387.156-23.730L387.156-23.730Q387.449-24.316 387.693-25.464Q387.938-26.611 388.157-27.905Q388.377-29.199 388.572-30.493Q388.768-31.787 388.963-32.764L388.963-32.764Q388.963-33.643 388.816-34.863Q388.670-36.084 388.670-37.158L388.670-37.158L388.426-38.281L389.451-40.137Q389.451-40.332 389.183-40.894Q388.914-41.455 388.670-41.650L388.670-41.650L388.670-44.873L389.354-50.439L388.768-55.078Q388.768-55.273 388.719-55.688Q388.670-56.104 388.670-56.787L388.670-56.787Q388.572-56.982 388.182-57.617Q387.791-58.252 387.400-58.984L387.400-58.984L386.326-60.840Q386.180-60.938 385.789-61.157Q385.398-61.377 384.983-61.597Q384.568-61.816 384.202-61.987Q383.836-62.158 383.689-62.158L383.689-62.158Q383.250-62.354 382.688-62.622Q382.127-62.891 381.541-63.159Q380.955-63.428 380.394-63.647Q379.832-63.867 379.393-63.965L379.393-63.965Q379.002-64.111 378.221-64.209Q377.439-64.307 376.634-64.502Q375.828-64.697 375.242-65.039Q374.656-65.381 374.656-66.064L374.656-66.064L374.656-66.797L376.268-67.139L378.025-68.066Q378.904-68.262 379.808-68.311Q380.711-68.359 381.639-68.408Q382.566-68.457 383.445-68.604Q384.324-68.750 385.057-69.189L385.057-69.189L387.156-69.189Q388.865-69.189 390.403-69.067Q391.941-68.945 393.846-68.945L393.846-68.945L396.629-68.945Q398.484-69.922 400.560-70.361Q402.635-70.801 404.832-70.801L404.832-70.801Q405.027-70.801 405.442-70.703Q405.857-70.605 406.297-70.410Q406.736-70.215 407.054-69.897Q407.371-69.580 407.371-69.189L407.371-69.189L407.371-66.309L406.932-66.064Q406.053-65.527 405.052-65.430Q404.051-65.332 403.074-65.234L403.074-65.234Q401.951-65.088 400.877-64.795Q399.803-64.502 398.582-64.307L398.582-64.307Q397.117-63.232 396.458-61.694Q395.799-60.156 395.481-58.472Q395.164-56.787 394.920-55.103Q394.676-53.418 394.090-52.051L394.090-52.051L394.090-40.625L393.406-38.770L393.406-32.764Q393.211-32.373 393.187-32.007Q393.162-31.641 393.162-31.006L393.162-31.006Q393.162-30.420 393.284-30.078Q393.406-29.736 393.406-28.955L393.406-28.955L392.771-27.197Q392.527-26.221 392.186-25.317Q391.844-24.414 391.648-23.389L391.648-23.389L390.623-19.238Q390.232-17.969 389.744-16.870Q389.256-15.771 388.621-14.697L388.621-14.697Q388.377-14.160 388.035-13.794Q387.693-13.428 387.327-13.086Q386.961-12.744 386.644-12.354Q386.326-11.963 386.180-11.426L386.180-11.426Q385.545-9.961 383.543-8.447L383.543-8.447Q382.566-7.617 381.492-6.738Q380.418-5.859 379.393-5.078L379.393-5.078Q379.002-4.883 378.636-4.565Q378.270-4.248 377.903-3.931Q377.537-3.613 377.146-3.369Q376.756-3.125 376.268-3.027L376.268-3.027L374.656-3.027L372.410-1.953Q371.824-1.758 371.067-1.733Q370.311-1.709 369.578-1.709L369.578-1.709L367.479-1.709L364.256-1.416L361.766-1.709L358.006-1.416Q357.957-1.514 357.542-1.660Q357.127-1.807 356.590-2.051L356.590-2.051Q355.955-2.344 355.198-2.588Q354.441-2.832 353.807-3.027L353.807-3.027L352.293-3.369Q351.072-3.760 350.071-3.979Q349.070-4.199 348.973-4.297L348.973-4.297Q348.631-4.492 348.387-4.858Q348.143-5.225 347.923-5.591Q347.703-5.957 347.435-6.299Q347.166-6.641 346.775-6.836L346.775-6.836Q345.262-7.520 343.943-8.496Q342.625-9.473 341.648-11.084Z M461.732-1.270L461.732-1.270Q461.049-1.270 460.341-1.099Q459.633-0.928 458.900-0.708Q458.168-0.488 457.411-0.317Q456.654-0.146 455.824-0.146L455.824-0.146L453.627-0.439Q452.895-0.439 452.284-0.293Q451.674-0.146 451.039-0.146L451.039-0.146L447.475-0.146Q447.035-0.146 446.693-0.195Q446.352-0.244 446.059-0.342L446.059-0.342Q444.203-0.732 444.203-2.686L444.203-2.686Q444.203-3.271 444.325-3.662Q444.447-4.053 445.277-4.492L445.277-4.492Q446.107-4.834 447.353-4.980Q448.598-5.127 449.916-5.249Q451.234-5.371 452.431-5.542Q453.627-5.713 454.311-6.152L454.311-6.152Q454.604-6.299 455.019-6.934Q455.434-7.568 455.800-8.325Q456.166-9.082 456.435-9.766Q456.703-10.449 456.703-10.742L456.703-10.742L456.117-14.697L457.191-17.041L456.117-19.092L457.191-30.322L456.850-35.400Q456.605-35.645 456.605-36.475L456.605-36.475Q456.605-37.256 456.728-37.793Q456.850-38.330 457.021-38.696Q457.191-39.063 457.313-39.404Q457.436-39.746 457.436-40.186L457.436-40.186Q457.436-41.455 457.021-42.603Q456.605-43.750 456.605-45.117L456.605-45.117L457.191-48.584Q457.191-49.072 457.167-49.756Q457.143-50.439 457.045-51.172Q456.947-51.904 456.728-52.563Q456.508-53.223 456.117-53.662L456.117-53.662Q456.117-53.857 456.239-54.248Q456.361-54.639 456.361-55.420L456.361-55.420Q456.361-56.055 456.239-56.567Q456.117-57.080 456.117-57.275L456.117-57.275Q456.117-57.520 456.020-57.861Q455.922-58.203 455.824-58.203L455.824-58.203L452.699-61.084Q452.113-61.084 450.722-61.377Q449.330-61.670 447.890-62.158Q446.449-62.646 445.326-63.306Q444.203-63.965 444.203-64.697L444.203-64.697Q444.203-66.064 445.082-66.528Q445.961-66.992 446.986-66.992L446.986-66.992Q447.377-66.992 447.743-66.943Q448.109-66.895 448.402-66.797L448.402-66.797Q450.453-66.699 452.455-66.455Q454.457-66.211 456.508-66.211L456.508-66.211Q458.070-66.211 459.633-66.455Q461.195-66.699 462.758-66.797L462.758-66.797Q463.441-67.041 464.662-67.188Q465.883-67.334 467.226-67.407Q468.568-67.480 469.838-67.529Q471.107-67.578 471.889-67.676L471.889-67.676Q473.451-67.920 475.014-68.286Q476.576-68.652 478.139-68.652L478.139-68.652Q479.164-68.652 480.092-68.213Q481.020-67.773 481.020-66.309L481.020-66.309Q481.020-66.016 480.702-65.771Q480.385-65.527 479.970-65.308Q479.555-65.088 479.213-64.917Q478.871-64.746 478.822-64.551L478.822-64.551Q478.676-64.404 478.261-64.038Q477.846-63.672 477.382-63.281Q476.918-62.891 476.479-62.549Q476.039-62.207 475.795-62.109L475.795-62.109Q475.063-62.109 473.671-61.865Q472.279-61.621 470.912-61.108Q469.545-60.596 468.520-59.863Q467.494-59.131 467.494-58.203L467.494-58.203L467.494-51.025Q467.494-50.977 467.567-50.684Q467.641-50.391 467.738-50Q467.836-49.609 467.909-49.194Q467.982-48.779 468.031-48.584L468.031-48.584Q468.520-48.242 468.520-47.656L468.520-47.656Q467.738-46.240 467.372-44.751Q467.006-43.262 467.006-41.797L467.006-41.797L467.494-38.184L467.250-35.205Q467.250-34.521 467.421-33.838Q467.592-33.154 467.787-32.446Q467.982-31.738 468.153-31.030Q468.324-30.322 468.324-29.541L468.324-29.541Q468.324-28.857 468.153-28.198Q467.982-27.539 467.787-26.929Q467.592-26.318 467.421-25.684Q467.250-25.049 467.250-24.414L467.250-24.414Q467.250-23.730 467.348-23.242Q467.445-22.754 467.738-21.973L467.738-21.973L467.738-15.967Q467.543-15.430 467.519-15.161Q467.494-14.893 467.494-14.453L467.494-14.453Q467.494-12.598 467.885-11.133Q468.275-9.668 469.008-8.008L469.008-8.008Q469.008-7.861 469.496-7.495Q469.984-7.129 470.595-6.763Q471.205-6.396 471.742-6.104Q472.279-5.811 472.377-5.811L472.377-5.811Q473.402-5.811 474.037-6.030Q474.672-6.250 475.355-6.250L475.355-6.250Q475.941-6.250 477.016-6.104Q478.090-5.957 478.969-5.469L478.969-5.469Q479.457-5.078 479.848-4.614Q480.238-4.150 480.238-3.613L480.238-3.613Q480.238-2.881 480.043-2.148Q479.848-1.416 479.408-1.172L479.408-1.172Q478.822-0.586 477.895-0.586L477.895-0.586Q477.455-0.586 476.918-0.537Q476.381-0.488 475.941-0.439L475.941-0.439L473.988 0Q472.963 0 471.767-0.024Q470.570-0.049 469.374-0.098Q468.178-0.146 467.030-0.244Q465.883-0.342 464.955-0.439L464.955-0.439Q464.809-0.439 464.418-0.562Q464.027-0.684 463.539-0.830Q463.051-0.977 462.636-1.074Q462.221-1.172 462.025-1.172L462.025-1.172Q461.977-1.172 461.928-1.221L461.928-1.221Q461.879-1.221 461.830-1.245Q461.781-1.270 461.732-1.270Z M521.953-1.514L521.953-1.514Q521.953-2.295 522.100-2.539Q522.246-2.783 522.686-3.125L522.686-3.125Q523.467-3.662 524.639-4.248Q525.811-4.834 527.031-5.420Q528.252-6.006 529.375-6.543Q530.498-7.080 531.230-7.520L531.230-7.520Q532.305-9.424 532.744-11.572Q533.184-13.721 533.184-15.967L533.184-15.967L533.184-17.383Q533.184-17.773 533.184-18.164Q533.184-18.555 533.232-18.945L533.232-18.945Q533.281-19.043 533.330-19.287Q533.379-19.531 533.428-19.824Q533.477-20.117 533.501-20.386Q533.525-20.654 533.525-20.801L533.525-20.801L534.111-21.777L534.160-23.584Q534.160-23.828 534.087-24.146Q534.014-24.463 533.525-25.098L533.525-25.098L534.355-27.783Q534.355-28.174 534.282-28.418Q534.209-28.662 534.111-28.906L534.111-28.906Q534.014-29.004 533.916-29.297Q533.818-29.590 533.818-29.883L533.818-29.883L533.818-30.811L534.355-34.619L533.818-37.939Q533.818-39.063 534.331-40.186Q534.844-41.309 534.844-42.383L534.844-42.383L534.600-44.287Q534.600-45.068 534.771-45.947Q534.941-46.826 535.161-47.729Q535.381-48.633 535.576-49.585Q535.771-50.537 535.771-51.465L535.771-51.465Q535.576-51.758 535.186-52.246Q534.795-52.734 534.600-53.125L534.600-53.125Q534.600-53.760 534.478-54.736Q534.355-55.713 533.989-56.616Q533.623-57.520 533.013-58.154Q532.402-58.789 531.475-58.789L531.475-58.789L527.422-58.447L526.396-58.447Q525.371-58.594 524.468-58.740Q523.564-58.887 522.856-59.204Q522.148-59.521 521.733-60.107Q521.318-60.693 521.318-61.768L521.318-61.768Q521.318-62.646 521.416-63.086Q521.514-63.525 521.807-63.721Q522.100-63.916 522.612-63.989Q523.125-64.063 523.955-64.209L523.955-64.209L525.127-64.697L526.738-64.697Q530.059-64.697 533.086-64.282Q536.113-63.867 539.336-63.867L539.336-63.867Q540.117-63.867 540.679-64.038Q541.240-64.209 541.875-64.209L541.875-64.209Q544.512-63.184 545.854-61.523Q547.197-59.863 547.881-57.178L547.881-57.178L547.930-56.592Q548.076-55.615 548.223-55.029Q548.369-54.443 548.687-54.004Q549.004-53.564 549.590-53.149Q550.176-52.734 551.250-52.197L551.250-52.197L551.152-51.172Q551.152-50.439 551.323-49.731Q551.494-49.023 551.763-48.315Q552.031-47.607 552.275-46.875Q552.520-46.143 552.666-45.264L552.666-45.264Q552.666-45.117 552.715-44.751Q552.764-44.385 552.837-43.994Q552.910-43.604 552.959-43.262Q553.008-42.920 553.008-42.822L553.008-42.822Q553.301-42.090 553.862-41.187Q554.424-40.283 555.010-39.355Q555.596-38.428 556.182-37.500Q556.768-36.572 557.158-35.840L557.158-35.840Q558.428-33.154 559.600-30.420Q560.771-27.686 561.895-24.902L561.895-24.902L563.311-22.559Q563.604-22.021 563.750-21.411Q563.896-20.801 564.116-20.313Q564.336-19.824 564.678-19.507Q565.020-19.189 565.703-19.189L565.703-19.189Q566.436-19.189 566.729-19.336Q567.021-19.482 567.119-19.824Q567.217-20.166 567.266-20.630Q567.314-21.094 567.559-21.777L567.559-21.777Q567.559-21.875 568.022-22.168Q568.486-22.461 568.584-22.559L568.584-22.559Q569.512-23.779 570.146-25.171Q570.781-26.563 571.294-28.052Q571.807-29.541 572.246-31.055Q572.686-32.568 573.223-34.033L573.223-34.033Q573.223-34.082 573.442-34.570Q573.662-35.059 573.931-35.669Q574.199-36.279 574.468-36.865Q574.736-37.451 574.834-37.695L574.834-37.695Q575.566-39.551 576.030-41.113Q576.494-42.676 577.275-44.336L577.275-44.336L577.617-45.264Q578.594-47.119 579.692-49.146Q580.791-51.172 582.061-52.441L582.061-52.441Q582.061-53.223 581.938-53.564Q581.816-53.906 581.816-54.150L581.816-54.150Q581.816-54.395 581.914-54.907Q582.012-55.420 582.158-55.981Q582.305-56.543 582.402-57.007Q582.500-57.471 582.500-57.617L582.500-57.617Q582.598-57.813 582.720-58.398Q582.842-58.984 582.842-59.229L582.842-59.229L583.867-60.303Q583.867-60.449 583.916-60.815Q583.965-61.182 583.989-61.548Q584.014-61.914 584.063-62.207Q584.111-62.500 584.111-62.598L584.111-62.598Q584.404-63.232 585.112-63.745Q585.820-64.258 586.675-64.575Q587.529-64.893 588.359-65.063Q589.189-65.234 589.775-65.234L589.775-65.234Q590.752-65.234 591.729-64.697L591.729-64.697Q592.754-64.355 593.828-64.355L593.828-64.355L598.223-65.234Q599.980-65.234 601.323-65.161Q602.666-65.088 604.521-64.697L604.521-64.697Q605.986-64.453 605.986-63.086L605.986-63.086Q605.986-61.816 605.107-61.108Q604.229-60.400 602.910-59.937Q601.592-59.473 600.078-59.155Q598.564-58.838 597.246-58.423Q595.928-58.008 595.049-57.349Q594.170-56.689 594.170-55.566L594.170-55.566Q594.170-54.541 594.512-53.589Q594.854-52.637 595.269-51.660Q595.684-50.684 596.025-49.683Q596.367-48.682 596.367-47.656L596.367-47.656L595.586-43.066L595.586-33.301Q595.830-32.910 595.830-32.275L595.830-32.275L596.025-27.051L597.100-25.195L597.100-22.070Q597.100-21.973 597.124-21.606Q597.148-21.240 597.197-20.801Q597.246-20.361 597.295-19.971Q597.344-19.580 597.344-19.434L597.344-19.434Q597.441-18.652 597.588-17.163Q597.734-15.674 597.954-14.014Q598.174-12.354 598.491-10.840Q598.809-9.326 599.297-8.545L599.297-8.545Q599.834-7.617 600.762-7.153Q601.689-6.689 602.788-6.396Q603.887-6.104 605.010-5.908Q606.133-5.713 607.036-5.347Q607.939-4.980 608.525-4.346Q609.111-3.711 609.111-2.539L609.111-2.539Q609.111-1.563 608.623-1.025Q608.135-0.488 607.402-0.195Q606.670 0.098 605.840 0.171Q605.010 0.244 604.375 0.244L604.375 0.244L601.836 0.244Q600.811 0.244 599.663 0.195Q598.516 0.146 597.490 0.049Q596.465-0.049 595.684-0.171Q594.902-0.293 594.561-0.488L594.561-0.488Q594.414-0.586 593.584-0.586L593.584-0.586L592.656-0.586L587.383 0.244L582.842-0.244Q582.646-0.244 582.280-0.049Q581.914 0.146 581.816 0.244L581.816 0.244Q580.938 0.244 580.059 0.098Q579.180-0.049 578.472-0.391Q577.764-0.732 577.300-1.294Q576.836-1.855 576.836-2.686L576.836-2.686Q576.836-3.760 578.252-4.150L578.252-4.150Q578.838-4.199 579.375-4.248Q579.912-4.297 580.547-4.297L580.547-4.297Q582.354-4.297 583.989-4.614Q585.625-4.932 586.699-6.348L586.699-6.348Q586.748-6.592 586.846-6.787L586.846-6.787Q586.895-6.934 586.943-7.080Q586.992-7.227 586.992-7.275L586.992-7.275Q586.992-7.373 587.065-7.520Q587.139-7.666 587.236-7.861L587.236-7.861L587.578-9.033Q587.871-10.156 587.969-11.279Q588.066-12.402 588.066-13.525L588.066-13.525Q588.066-14.941 587.944-16.284Q587.822-17.627 587.578-19.092L587.578-19.092L587.480-19.531Q587.383-19.824 587.383-20.288Q587.383-20.752 587.383-21.289L587.383-21.289Q587.383-22.021 587.383-22.876Q587.383-23.730 587.310-24.487Q587.236-25.244 587.090-25.854Q586.943-26.465 586.699-26.758L586.699-26.758Q586.797-27.002 586.797-27.124Q586.797-27.246 586.797-27.441L586.797-27.441L586.797-28.223L585.723-36.230L585.967-42.139Q585.967-42.578 585.918-43.286Q585.869-43.994 585.845-44.702Q585.820-45.410 585.771-45.923Q585.723-46.436 585.723-46.436L585.723-46.436Q585.723-46.875 585.698-47.705Q585.674-48.535 585.527-49.365Q585.381-50.195 585.039-50.830Q584.697-51.465 584.111-51.465L584.111-51.465Q583.916-51.465 583.745-51.367Q583.574-51.270 583.574-51.172L583.574-51.172L582.842-47.803Q582.158-47.510 582.036-46.826Q581.914-46.143 581.914-45.361L581.914-45.361Q581.914-44.971 581.914-44.604Q581.914-44.238 581.816-43.945L581.816-43.945Q581.035-42.529 580.034-41.382Q579.033-40.234 578.252-38.965L578.252-38.965Q578.008-38.721 577.813-38.110Q577.617-37.500 577.422-36.792Q577.227-36.084 577.080-35.474Q576.934-34.863 576.836-34.570L576.836-34.570Q576.201-32.861 575.371-31.152Q574.541-29.443 573.564-27.783L573.564-27.783L573.223-27.051Q573.125-26.953 573.076-26.294Q573.027-25.635 572.930-25.439L572.930-25.439Q572.783-25.342 572.515-25.098Q572.246-24.854 571.953-24.561Q571.660-24.268 571.416-23.999Q571.172-23.730 571.025-23.633L571.025-23.633L570.342-20.117Q570.195-19.434 569.854-18.848Q569.512-18.262 569.146-17.700Q568.779-17.139 568.438-16.577Q568.096-16.016 567.900-15.381L567.900-15.381Q567.900-15.283 567.852-14.893Q567.803-14.502 567.729-14.014Q567.656-13.525 567.607-13.086Q567.559-12.646 567.559-12.500L567.559-12.500Q567.559-12.354 567.388-11.548Q567.217-10.742 566.973-9.814Q566.729-8.887 566.509-8.130Q566.289-7.373 566.191-7.275L566.191-7.275L565.020-5.908Q564.922-5.762 564.922-4.980L564.922-4.980Q564.922-4.590 564.873-4.077Q564.824-3.564 564.629-3.125Q564.434-2.686 564.116-2.393Q563.799-2.100 563.311-2.100L563.311-2.100Q562.871-2.100 562.407-2.441Q561.943-2.783 561.479-3.320Q561.016-3.857 560.601-4.443Q560.186-5.029 559.844-5.566L559.844-5.566Q559.844-5.664 559.648-5.933Q559.453-6.201 559.453-6.348L559.453-6.348Q558.525-7.910 558.232-9.668Q557.939-11.426 557.402-13.281L557.402-13.281Q557.305-13.721 556.792-14.697Q556.279-15.674 555.645-16.772Q555.010-17.871 554.424-18.896Q553.838-19.922 553.545-20.508L553.545-20.508Q552.422-22.705 551.250-24.902Q550.078-27.100 548.955-29.297L548.955-29.297L547.881-32.715Q546.465-35.889 544.902-38.647Q543.340-41.406 541.777-44.336L541.777-44.336Q541.680-44.531 541.436-44.873Q541.191-45.215 541.094-45.264L541.094-45.264L540.020-46.436Q539.873-46.729 539.849-47.070Q539.824-47.412 539.775-47.705Q539.727-47.998 539.531-48.193Q539.336-48.389 538.848-48.389L538.848-48.389Q538.604-48.389 538.530-48.340Q538.457-48.291 538.311-48.047L538.311-48.047L537.725-42.383L537.725-40.039Q537.725-38.379 537.725-36.792Q537.725-35.205 537.822-33.545L537.822-33.545Q537.969-30.371 537.969-27.051L537.969-27.051Q538.018-26.904 538.115-26.611L538.115-26.611Q538.213-26.367 538.311-25.952Q538.408-25.537 538.555-24.902L538.555-24.902L538.164-23.926Q538.164-23.096 537.944-22.485Q537.725-21.875 537.725-20.605L537.725-20.605L537.725-19.775L538.652-17.969Q538.750-17.773 538.750-17.529Q538.750-17.285 538.750-16.992L538.750-16.992L538.750-15.381Q538.750-14.111 538.848-12.891Q538.945-11.670 539.580-10.889L539.580-10.889L543.389-6.592Q543.389-5.615 543.877-5.127Q544.365-4.639 545.098-4.346Q545.830-4.053 546.685-3.906Q547.539-3.760 548.271-3.491Q549.004-3.223 549.492-2.734Q549.980-2.246 549.980-1.367L549.980-1.367Q549.980-1.221 549.956-0.952Q549.932-0.684 549.858-0.415Q549.785-0.146 549.639 0.049Q549.492 0.244 549.297 0.244L549.297 0.244L544.658 0.244L543.389-0.244L542.217-0.244Q541.143-0.244 540.190-0.366Q539.238-0.488 538.286-0.635Q537.334-0.781 536.333-0.903Q535.332-1.025 534.160-1.025L534.160-1.025Q533.672-1.025 533.184-0.610Q532.695-0.195 532.158 0L532.158 0Q530.889 0.098 529.570 0.342Q528.252 0.586 526.934 0.586L526.934 0.586Q526.543 0.586 526.006 0.708Q525.469 0.830 524.736 0.830L524.736 0.830Q524.395 0.830 523.979 0.781Q523.564 0.732 523.174 0.439L523.174 0.439Q521.953-0.049 521.953-1.514Z M666.744-1.270L666.744-1.270Q666.061-1.270 665.353-1.099Q664.645-0.928 663.912-0.708Q663.180-0.488 662.423-0.317Q661.666-0.146 660.836-0.146L660.836-0.146L658.639-0.439Q657.906-0.439 657.296-0.293Q656.686-0.146 656.051-0.146L656.051-0.146L652.486-0.146Q652.047-0.146 651.705-0.195Q651.363-0.244 651.070-0.342L651.070-0.342Q649.215-0.732 649.215-2.686L649.215-2.686Q649.215-3.271 649.337-3.662Q649.459-4.053 650.289-4.492L650.289-4.492Q651.119-4.834 652.364-4.980Q653.609-5.127 654.928-5.249Q656.246-5.371 657.442-5.542Q658.639-5.713 659.322-6.152L659.322-6.152Q659.615-6.299 660.030-6.934Q660.445-7.568 660.812-8.325Q661.178-9.082 661.446-9.766Q661.715-10.449 661.715-10.742L661.715-10.742L661.129-14.697L662.203-17.041L661.129-19.092L662.203-30.322L661.861-35.400Q661.617-35.645 661.617-36.475L661.617-36.475Q661.617-37.256 661.739-37.793Q661.861-38.330 662.032-38.696Q662.203-39.063 662.325-39.404Q662.447-39.746 662.447-40.186L662.447-40.186Q662.447-41.455 662.032-42.603Q661.617-43.750 661.617-45.117L661.617-45.117L662.203-48.584Q662.203-49.072 662.179-49.756Q662.154-50.439 662.057-51.172Q661.959-51.904 661.739-52.563Q661.520-53.223 661.129-53.662L661.129-53.662Q661.129-53.857 661.251-54.248Q661.373-54.639 661.373-55.420L661.373-55.420Q661.373-56.055 661.251-56.567Q661.129-57.080 661.129-57.275L661.129-57.275Q661.129-57.520 661.031-57.861Q660.934-58.203 660.836-58.203L660.836-58.203L657.711-61.084Q657.125-61.084 655.733-61.377Q654.342-61.670 652.901-62.158Q651.461-62.646 650.338-63.306Q649.215-63.965 649.215-64.697L649.215-64.697Q649.215-66.064 650.094-66.528Q650.973-66.992 651.998-66.992L651.998-66.992Q652.389-66.992 652.755-66.943Q653.121-66.895 653.414-66.797L653.414-66.797Q655.465-66.699 657.467-66.455Q659.469-66.211 661.520-66.211L661.520-66.211Q663.082-66.211 664.645-66.455Q666.207-66.699 667.770-66.797L667.770-66.797Q668.453-67.041 669.674-67.188Q670.895-67.334 672.237-67.407Q673.580-67.480 674.850-67.529Q676.119-67.578 676.900-67.676L676.900-67.676Q678.463-67.920 680.025-68.286Q681.588-68.652 683.150-68.652L683.150-68.652Q684.176-68.652 685.104-68.213Q686.031-67.773 686.031-66.309L686.031-66.309Q686.031-66.016 685.714-65.771Q685.396-65.527 684.981-65.308Q684.566-65.088 684.225-64.917Q683.883-64.746 683.834-64.551L683.834-64.551Q683.688-64.404 683.272-64.038Q682.857-63.672 682.394-63.281Q681.930-62.891 681.490-62.549Q681.051-62.207 680.807-62.109L680.807-62.109Q680.074-62.109 678.683-61.865Q677.291-61.621 675.924-61.108Q674.557-60.596 673.531-59.863Q672.506-59.131 672.506-58.203L672.506-58.203L672.506-51.025Q672.506-50.977 672.579-50.684Q672.652-50.391 672.750-50Q672.848-49.609 672.921-49.194Q672.994-48.779 673.043-48.584L673.043-48.584Q673.531-48.242 673.531-47.656L673.531-47.656Q672.750-46.240 672.384-44.751Q672.018-43.262 672.018-41.797L672.018-41.797L672.506-38.184L672.262-35.205Q672.262-34.521 672.433-33.838Q672.604-33.154 672.799-32.446Q672.994-31.738 673.165-31.030Q673.336-30.322 673.336-29.541L673.336-29.541Q673.336-28.857 673.165-28.198Q672.994-27.539 672.799-26.929Q672.604-26.318 672.433-25.684Q672.262-25.049 672.262-24.414L672.262-24.414Q672.262-23.730 672.359-23.242Q672.457-22.754 672.750-21.973L672.750-21.973L672.750-15.967Q672.555-15.430 672.530-15.161Q672.506-14.893 672.506-14.453L672.506-14.453Q672.506-12.598 672.896-11.133Q673.287-9.668 674.020-8.008L674.020-8.008Q674.020-7.861 674.508-7.495Q674.996-7.129 675.606-6.763Q676.217-6.396 676.754-6.104Q677.291-5.811 677.389-5.811L677.389-5.811Q678.414-5.811 679.049-6.030Q679.684-6.250 680.367-6.250L680.367-6.250Q680.953-6.250 682.027-6.104Q683.102-5.957 683.980-5.469L683.980-5.469Q684.469-5.078 684.859-4.614Q685.250-4.150 685.250-3.613L685.250-3.613Q685.250-2.881 685.055-2.148Q684.859-1.416 684.420-1.172L684.420-1.172Q683.834-0.586 682.906-0.586L682.906-0.586Q682.467-0.586 681.930-0.537Q681.393-0.488 680.953-0.439L680.953-0.439L679 0Q677.975 0 676.778-0.024Q675.582-0.049 674.386-0.098Q673.189-0.146 672.042-0.244Q670.895-0.342 669.967-0.439L669.967-0.439Q669.820-0.439 669.430-0.562Q669.039-0.684 668.551-0.830Q668.063-0.977 667.647-1.074Q667.232-1.172 667.037-1.172L667.037-1.172Q666.988-1.172 666.939-1.221L666.939-1.221Q666.891-1.221 666.842-1.245Q666.793-1.270 666.744-1.270Z M721.252-1.855L721.252-1.855Q721.252-2.783 721.862-3.271Q722.473-3.760 723.303-4.028Q724.133-4.297 724.987-4.468Q725.842-4.639 726.379-4.980L726.379-4.980Q726.525-5.078 726.770-5.298Q727.014-5.518 727.307-5.786Q727.600-6.055 727.893-6.274Q728.186-6.494 728.332-6.592L728.332-6.592L730.676-7.764Q731.115-7.959 731.774-8.887Q732.434-9.814 733.093-10.962Q733.752-12.109 734.338-13.208Q734.924-14.307 735.168-14.844L735.168-14.844Q735.266-14.941 735.314-15.381Q735.363-15.820 735.363-16.064L735.363-16.064Q735.412-16.260 735.559-16.577Q735.705-16.895 735.705-16.992L735.705-16.992Q735.803-17.090 736.047-17.456Q736.291-17.822 736.584-18.213Q736.877-18.604 737.097-18.970Q737.316-19.336 737.365-19.434L737.365-19.434Q737.414-19.482 737.463-19.800Q737.512-20.117 737.561-20.483Q737.609-20.850 737.658-21.191Q737.707-21.533 737.707-21.631L737.707-21.631Q738-23.193 738.562-24.780Q739.123-26.367 739.685-27.930Q740.246-29.492 740.686-31.104Q741.125-32.715 741.271-34.375L741.271-34.375L744.641-43.652Q745.324-45.605 745.446-47.778Q745.568-49.951 746.154-52.051L746.154-52.051Q746.984-53.955 748.156-55.786Q749.328-57.617 750.305-59.717L750.305-59.717Q750.646-60.791 750.720-61.987Q750.793-63.184 751.477-64.209L751.477-64.209Q751.721-64.551 752.697-65.527Q753.674-66.504 754.797-67.529Q755.920-68.555 756.994-69.336Q758.068-70.117 758.557-70.117L758.557-70.117Q759.484-70.117 759.826-69.434L759.826-69.434Q760.070-69.238 760.339-68.799Q760.607-68.359 760.607-68.262L760.607-68.262Q760.852-67.383 761.291-66.504Q761.730-65.625 762.023-64.600L762.023-64.600L761.975-63.525Q761.975-62.842 762.292-62.085Q762.609-61.328 762.805-60.840L762.805-60.840Q763.342-59.131 763.757-57.520Q764.172-55.908 764.416-54.297L764.416-54.297Q764.611-53.320 765.051-52.515Q765.490-51.709 765.490-50.684L765.490-50.684L765.441-49.902Q766.320-49.121 766.760-48.486Q767.199-47.852 767.468-47.192Q767.736-46.533 768.005-45.776Q768.273-45.020 768.859-43.945L768.859-43.945Q769.348-42.969 769.592-42.114Q769.836-41.260 770.007-40.381Q770.178-39.502 770.373-38.525Q770.568-37.549 771.008-36.426L771.008-36.426Q771.057-36.182 771.325-35.596Q771.594-35.010 771.594-34.814L771.594-34.814L771.594-32.959Q771.594-32.861 771.789-32.520Q771.984-32.178 772.229-31.763Q772.473-31.348 772.668-30.957Q772.863-30.566 772.863-30.420L772.863-30.420Q772.863-30.371 772.888-30.151Q772.912-29.932 772.937-29.663Q772.961-29.395 773.010-29.150Q773.059-28.906 773.107-28.906L773.107-28.906L774.475-27.539Q774.816-27.246 774.914-26.855Q775.012-26.465 775.061-26.001Q775.109-25.537 775.158-25.073Q775.207-24.609 775.451-24.170L775.451-24.170Q776.037-22.803 776.477-21.362Q776.916-19.922 777.648-18.506L777.648-18.506Q778.088-17.480 778.381-16.333Q778.674-15.186 778.674-14.111L778.674-14.111L778.674-13.525Q779.309-12.402 780.090-11.523Q780.871-10.645 781.359-9.814L781.359-9.814Q781.799-8.740 782.287-8.105Q782.775-7.471 783.239-7.080Q783.703-6.689 784.143-6.470Q784.582-6.250 785.021-6.006L785.021-6.006Q786.096-5.371 787.243-5.078Q788.391-4.785 790.148-4.492L790.148-4.492L791.516-4.150Q792.150-3.760 792.297-3.003Q792.443-2.246 792.443-1.709L792.443-1.709Q792.443-0.684 791.638-0.220Q790.832 0.244 790.002 0.244L790.002 0.244L785.852 0L784.826 0Q784.582-0.195 784.167-0.317Q783.752-0.439 783.313-0.488Q782.873-0.537 782.507-0.537Q782.141-0.537 782.043-0.586L782.043-0.586L776.232-0.586Q775.842-1.123 775.524-1.196Q775.207-1.270 774.621-1.270L774.621-1.270Q772.619-1.270 770.446-0.757Q768.273-0.244 765.832-0.244L765.832-0.244L764.758-0.244Q763.977-0.244 763.269-0.293Q762.561-0.342 762.023-0.684L762.023-0.684Q761.779-0.830 761.779-1.514L761.779-1.514L761.877-2.295Q761.975-2.539 761.975-2.734Q761.975-2.930 761.975-3.027L761.975-3.027Q761.975-3.369 762.268-3.467L762.268-3.467Q763.146-3.857 764.270-4.053Q765.393-4.248 766.418-4.492Q767.443-4.736 768.151-5.176Q768.859-5.615 768.859-6.494L768.859-6.494L768.859-6.592Q768.811-7.715 768.688-9.155Q768.566-10.596 768.566-12.012L768.566-12.012Q768.566-12.500 768.249-13.037Q767.932-13.574 767.883-14.014L767.883-14.014L767.883-16.992Q767.785-17.627 767.272-19.019Q766.760-20.410 766.003-21.777Q765.246-23.145 764.367-24.194Q763.488-25.244 762.609-25.244L762.609-25.244Q761.340-25.244 759.997-24.707Q758.654-24.170 757.287-24.170L757.287-24.170Q756.115-24.170 755.065-24.634Q754.016-25.098 752.600-25.098L752.600-25.098L749.475-25.098Q748.449-25.098 747.399-24.976Q746.350-24.854 745.471-24.316L745.471-24.316Q743.957-23.438 742.688-21.948Q741.418-20.459 740.832-18.262L740.832-18.262L740.490-14.844Q740.490-14.746 740.393-14.355Q740.295-13.965 740.197-13.525Q740.100-13.086 740.002-12.720Q739.904-12.354 739.904-12.256L739.904-12.256Q739.904-12.158 739.855-11.963Q739.807-11.768 739.807-11.572L739.807-11.572Q739.807-10.693 740.100-10.303Q740.393-9.912 740.832-9.131L740.832-9.131Q741.076-8.691 741.491-7.959Q741.906-7.227 742.346-6.689L742.346-6.689Q743.029-6.104 744.177-5.762Q745.324-5.420 746.447-5.029Q747.570-4.639 748.376-4.053Q749.182-3.467 749.182-2.441L749.182-2.441L749.182-2.100Q748.938-0.195 747.766 0.415Q746.594 1.025 744.738 1.025L744.738 1.025L740.490-0.098L738.732-0.098Q737.854-0.098 736.926-0.049Q735.998 0 735.144 0.098Q734.289 0.195 733.630 0.366Q732.971 0.537 732.629 0.781L732.629 0.781Q731.408 0.781 730.212 0.830Q729.016 0.879 728.063 0.928Q727.111 0.977 726.501 1.001Q725.891 1.025 725.793 1.025L725.793 1.025Q725.158 1.025 724.377 0.830Q723.596 0.635 722.888 0.244Q722.180-0.146 721.716-0.659Q721.252-1.172 721.252-1.855ZM746.398-34.961L746.398-34.961Q746.350-34.424 746.301-33.911Q746.252-33.398 746.252-32.959L746.252-32.959Q746.252-31.592 746.887-31.128Q747.521-30.664 748.840-30.664L748.840-30.664Q748.986-30.664 749.084-30.762L749.084-30.762Q749.133-30.811 749.182-30.908L749.182-30.908Q749.279-30.908 749.841-31.006Q750.402-31.104 750.646-31.152L750.646-31.152Q751.086-31.104 751.501-31.006Q751.916-30.908 752.160-30.908L752.160-30.908L759.826-30.908Q763.146-30.908 763.146-33.936L763.146-33.936Q763.146-34.375 762.829-35.059Q762.512-35.742 762.072-36.548Q761.633-37.354 761.218-38.232Q760.803-39.111 760.607-39.941L760.607-39.941Q760.607-40.283 760.363-40.527L760.363-40.527L758.068-43.945Q758.068-44.189 757.897-44.434Q757.727-44.678 757.629-44.922L757.629-44.922L757.385-45.947Q757.141-46.973 756.799-48.438Q756.457-49.902 755.969-51.221Q755.480-52.539 754.870-53.467Q754.260-54.395 753.527-54.395L753.527-54.395Q753.088-54.395 752.404-53.125Q751.721-51.855 750.915-49.902Q750.109-47.949 749.304-45.581Q748.498-43.213 747.863-41.064Q747.229-38.916 746.813-37.231Q746.398-35.547 746.398-34.961Z"/>
    </g>
  </g>
</svg>
